<svg xmlns="http://www.w3.org/2000/svg" viewBox="0 0 1600 900" preserveAspectRatio="xMidYMid slice">
  <!-- Constellation pattern recreated from the Inavant door-etch graphic. Swap for exact vector from Inavant_door_etch_mec_C.ai when available. -->
  <g stroke="#3a3a3e" stroke-width="2.5" fill="none">
    <line x1="-60" y1="310" x2="180" y2="430"/>
    <line x1="80" y1="115" x2="430" y2="65"/>
    <line x1="430" y1="65" x2="760" y2="145"/>
    <line x1="760" y1="145" x2="1120" y2="45"/>
    <line x1="1120" y1="45" x2="1480" y2="165"/>
    <line x1="1480" y1="165" x2="1660" y2="90"/>
    <line x1="80" y1="115" x2="180" y2="430"/>
    <line x1="430" y1="65" x2="180" y2="430"/>
    <line x1="430" y1="65" x2="560" y2="365"/>
    <line x1="760" y1="145" x2="560" y2="365"/>
    <line x1="760" y1="145" x2="940" y2="445"/>
    <line x1="1120" y1="45" x2="940" y2="445"/>
    <line x1="1120" y1="45" x2="1320" y2="385"/>
    <line x1="1480" y1="165" x2="1320" y2="385"/>
    <line x1="180" y1="430" x2="560" y2="365"/>
    <line x1="560" y1="365" x2="940" y2="445"/>
    <line x1="940" y1="445" x2="1320" y2="385"/>
    <line x1="1320" y1="385" x2="1660" y2="520"/>
    <line x1="180" y1="430" x2="65" y2="725"/>
    <line x1="180" y1="430" x2="405" y2="820"/>
    <line x1="560" y1="365" x2="405" y2="820"/>
    <line x1="560" y1="365" x2="660" y2="585"/>
    <line x1="660" y1="585" x2="820" y2="710"/>
    <line x1="940" y1="445" x2="660" y2="585"/>
    <line x1="940" y1="445" x2="820" y2="710"/>
    <line x1="940" y1="445" x2="1245" y2="805"/>
    <line x1="1320" y1="385" x2="1245" y2="805"/>
    <line x1="1320" y1="385" x2="1560" y2="645"/>
    <line x1="65" y1="725" x2="405" y2="820"/>
    <line x1="405" y1="820" x2="820" y2="710"/>
    <line x1="820" y1="710" x2="1245" y2="805"/>
    <line x1="1245" y1="805" x2="1560" y2="645"/>
    <line x1="1560" y1="645" x2="1660" y2="700"/>
    <line x1="65" y1="725" x2="-40" y2="860"/>
    <line x1="405" y1="820" x2="330" y2="950"/>
    <line x1="1245" y1="805" x2="1310" y2="950"/>
  </g>
  <g fill="#48484d">
    <circle cx="80" cy="115" r="9"/>
    <circle cx="430" cy="65" r="11"/>
    <circle cx="760" cy="145" r="9"/>
    <circle cx="1120" cy="45" r="10"/>
    <circle cx="1480" cy="165" r="9"/>
    <circle cx="180" cy="430" r="11"/>
    <circle cx="560" cy="365" r="10"/>
    <circle cx="940" cy="445" r="11"/>
    <circle cx="1320" cy="385" r="10"/>
    <circle cx="660" cy="585" r="8"/>
    <circle cx="65" cy="725" r="9"/>
    <circle cx="405" cy="820" r="10"/>
    <circle cx="820" cy="710" r="9"/>
    <circle cx="1245" cy="805" r="10"/>
    <circle cx="1560" cy="645" r="9"/>
  </g>
</svg>
